# xmcd
#
# Track frame offsets:
#	150
#	13235
#	27552
#	40120
#	54577
#	69126
#	81924
#	94754
#	106412
#	120726
#	134523
#	148686
#	162334
#	176818
#	190434
#	204259
#	215920
#	227854
#	241519
#	253501
#	267479
#	277634
#	290603
#	303906
#	316606
#
# Disc length: 4415 seconds
#
# Revision: 0
# Processed by: cddbd v1.5.2PL0 Copyright (c) Steve Scherf et al.
# Submitted via: audiograbber 1.83.01
#
DISCID=6b113d19
DTITLE=Various Artist - A Short Cut To The Grave (Death)
DYEAR=2014
DGENRE=Blues
TTITLE0=Blind Lemon Jefferson - See That My Grave Is Kept Clean
TTITLE1=Bessie May Smith - My Daddy's Coffin Blues
TTITLE2=Mooch Richardson - Burying Ground Blues
TTITLE3=Tom Dickson - Death Bell Blues
TTITLE4=Billy Bird - Down In The Cemetary
TTITLE5=Nolan (Barrel House) Welsh - Dying Pickpocket Blues
TTITLE6=Charley Patton - Prayer Of Death Part 2
TTITLE7=Georgia Tom - Suicide Blues
TTITLE8=Tampa Red - Dying Mercy Blues
TTITLE9=Leola Manning - Laying In The Graveyard
TTITLE10=Bline Willie McTell - Death Cell Blues
TTITLE11=Bumble Bee Slim - Dead And Gone Mother
TTITLE12=Jimmie Gordon - Graveyard Blues (Dead And Gone Blues)
TTITLE13=Leadbelly - Death Letter Blues
TTITLE14=Leroy Carr - Six Cold Feet In The Ground
TTITLE15=Georgia White - Graveyard Blues
TTITLE16=Red Nelson - Crying Mother Blues
TTITLE17=Walter Vincson - When The Breath Bids The Body Goodbye
TTITLE18=Black Spider Dumplin - Death Of The Gambler
TTITLE19=Washboard Sam - Gonna Kill My Baby
TTITLE20=Little Son Joe - Bone Yard Blues
TTITLE21=Bukka White - Strange Place Blues
TTITLE22=Baby Doo - Death Of Walter Barnes
TTITLE23=Bill Gaither - A Short Cut To The Grave
TTITLE24=Big Boy Crudup - Death Valley Blues
EXTD=
EXTT0=
EXTT1=
EXTT2=
EXTT3=
EXTT4=
EXTT5=
EXTT6=
EXTT7=
EXTT8=
EXTT9=
EXTT10=
EXTT11=
EXTT12=
EXTT13=
EXTT14=
EXTT15=
EXTT16=
EXTT17=
EXTT18=
EXTT19=
EXTT20=
EXTT21=
EXTT22=
EXTT23=
EXTT24=
PLAYORDER=
